{"title":"WWE.Raw.01.03.11.DSR.XviD-XWT","uid":6081159,"size":812171532,"categoryP":"video","categoryS":"tv_shows","magnet":"?xt=urn:btih:ebb7a2c6c46ad6ff9b82adb74e44e9eba4582f2c&amp;dn=WWE.Raw.01.03.11.DSR.XviD-XWT&amp;tr=udp%3A%2F%2Ftracker.openbittorrent.com%3A80&amp;tr=udp%3A%2F%2Fopen.demonii.com%3A1337&amp;tr=udp%3A%2F%2Ftracker.coppersurfer.tk%3A6969&amp;tr=udp%3A%2F%2Fexodus.desync.com%3A6969","seeders":0,"leechers":0,"uploader":"SAFCukO09","files":3,"time":1294126728,"description":"]Format                           : AVI\nFormat/Info                      : Audio Video Interleave\nFile size                        : 775 MiB\nDuration                         : 1h 33mn\nOverall bit rate                 : 1 163 Kbps\n\nVideo\nID                               : 0\nFormat                           : MPEG-4 Visual\nFormat profile                   : Advanced Simple@L5\nFormat settings, BVOP            : Yes\nFormat settings, QPel            : No\nFormat settings, GMC             : No warppoints\nFormat settings, Matrix          : Default (H.263)\nCodec ID                         : XVID\nCodec ID/Hint                    : XviD\nDuration                         : 1h 33mn\nBit rate                         : 1 023 Kbps\nWidth                            : 640 pixels\nHeight                           : 368 pixels\nDisplay aspect ratio             : 16:9\nFrame rate                       : 25.000 fps\nColor space                      : YUV\nChroma subsampling               : 4:2:0\nBit depth                        : 8 bits\nScan type                        : Progressive\nBits/(Pixel*Frame)               : 0.174\nStream size                      : 681 MiB (88%)\nWriting library                  : XviD 1.1.2 (UTC 2006-11-01)\n\nAudio\nID                               : 1\nFormat                           : MPEG Audio\nFormat version                   : Version 1\nFormat profile                   : Layer 3\nMode                             : Joint stereo\nMode extension                   : MS Stereo\nCodec ID                         : 55\nCodec ID/Hint                    : MP3\nDuration                         : 1h 33mn\nBit rate mode                    : Constant\nBit rate                         : 128 Kbps\nChannel(s)                       : 2 channels\nSampling rate                    : 44.1 KHz\nStream size                      : 85.2 MiB (11%)\nAlignment                        : Aligned on interleaves\nInterleave, duration             : 26 ms (0.65 video frame)\nInterleave, preload duration     : 809 ms","torrent":{"xt":"urn:btih:ebb7a2c6c46ad6ff9b82adb74e44e9eba4582f2c","amp;dn":"WWE.Raw.01.03.11.DSR.XviD-XWT","amp;tr":["udp%3A%2F%2Ftracker.openbittorrent.com%3A80","udp%3A%2F%2Fopen.demonii.com%3A1337","udp%3A%2F%2Ftracker.coppersurfer.tk%3A6969","udp%3A%2F%2Fexodus.desync.com%3A6969"],"infoHash":"ebb7a2c6c46ad6ff9b82adb74e44e9eba4582f2c","infoHashBuffer":{"type":"Buffer","data":[235,183,162,198,196,106,214,255,155,130,173,183,78,68,233,235,164,88,47,44]},"announce":[],"urlList":[]}}